<?xml version="1.0" encoding="UTF-8" standalone="no"?>
<svg width="183px" height="183px" viewBox="0 0 183 183" version="1.1" xmlns="http://www.w3.org/2000/svg" xmlns:xlink="http://www.w3.org/1999/xlink" xmlns:sketch="http://www.bohemiancoding.com/sketch/ns">
    <!-- Generator: Sketch 3.3.3 (12081) - http://www.bohemiancoding.com/sketch -->
    <title>Artboard 1</title>
    <desc>Created with Sketch.</desc>
    <defs></defs>
    <g id="Page-1" stroke="none" stroke-width="1" fill="none" fill-rule="evenodd" sketch:type="MSPage">
        <g id="Artboard-1" sketch:type="MSArtboardGroup" transform="translate(-146.000000, -158.000000)">
            <circle id="Oval-1" fill="#FFFFFF" sketch:type="MSShapeGroup" cx="237.5" cy="249.5" r="91.5"></circle>
            <circle id="Oval-1-Copy" stroke="#000000" stroke-width="5" sketch:type="MSShapeGroup" cx="237.5" cy="249.5" r="80.5"></circle>
            <path d="M207.304688,235.601562 L207.421875,235.601562 L218.007812,210.5625 L220.859375,210.5625 L220.859375,239 L218.515625,239 L218.515625,215.113281 L218.398438,215.09375 L208.203125,239 L206.523438,239 L196.09375,214.507812 L195.976562,214.527344 L195.976562,239 L193.632812,239 L193.632812,210.5625 L196.757812,210.5625 L207.304688,235.601562 Z M240.957031,239 C240.813801,238.257809 240.706381,237.619794 240.634766,237.085938 C240.563151,236.552081 240.527344,236.005211 240.527344,235.445312 C239.798173,236.591152 238.776048,237.538408 237.460938,238.287109 C236.145827,239.035811 234.635425,239.410156 232.929688,239.410156 C230.859365,239.410156 229.254563,238.860032 228.115234,237.759766 C226.975906,236.6595 226.40625,235.165374 226.40625,233.277344 C226.40625,231.389313 227.233065,229.859381 228.886719,228.6875 C230.540373,227.515619 232.688789,226.929688 235.332031,226.929688 L240.527344,226.929688 L240.527344,224.3125 C240.527344,222.802076 240.048833,221.617192 239.091797,220.757812 C238.134761,219.898433 236.783863,219.46875 235.039062,219.46875 C233.437492,219.46875 232.145187,219.859371 231.162109,220.640625 C230.179032,221.421879 229.6875,222.404942 229.6875,223.589844 L227.519531,223.589844 L227.480469,223.472656 C227.402343,221.884107 228.082675,220.487636 229.521484,219.283203 C230.960294,218.07877 232.83853,217.476562 235.15625,217.476562 C237.47397,217.476562 239.33593,218.069004 240.742188,219.253906 C242.148445,220.438808 242.851562,222.13801 242.851562,224.351562 L242.851562,234.742188 C242.851562,235.484379 242.89388,236.207028 242.978516,236.910156 C243.063151,237.613285 243.203124,238.309892 243.398438,239 L240.957031,239 Z M233.183594,237.339844 C234.980478,237.339844 236.536452,236.913416 237.851562,236.060547 C239.166673,235.207678 240.058591,234.110684 240.527344,232.769531 L240.527344,228.726562 L235.3125,228.726562 C233.411449,228.726562 231.842454,229.179032 230.605469,230.083984 C229.368483,230.988937 228.75,232.079421 228.75,233.355469 C228.75,234.553391 229.143876,235.516923 229.931641,236.246094 C230.719405,236.975264 231.803379,237.339844 233.183594,237.339844 L233.183594,237.339844 Z M253.90625,228.707031 L251.445312,228.707031 L251.445312,239 L249.101562,239 L249.101562,208.53125 L251.445312,208.53125 L251.445312,226.695312 L253.671875,226.695312 L261.777344,217.867188 L264.511719,217.867188 L264.550781,217.964844 L255.878906,227.554688 L265.253906,238.902344 L265.195312,239 L262.519531,239 L253.90625,228.707031 Z M276.367188,239.410156 C273.632799,239.410156 271.412769,238.443369 269.707031,236.509766 C268.001294,234.576162 267.148438,232.092463 267.148438,229.058594 L267.148438,227.984375 C267.148438,224.937485 268.011059,222.424489 269.736328,220.445312 C271.461597,218.466136 273.600248,217.476562 276.152344,217.476562 C278.717461,217.476562 280.699863,218.300122 282.099609,219.947266 C283.499356,221.594409 284.199219,223.811184 284.199219,226.597656 L284.199219,228.414062 L269.492188,228.414062 L269.492188,229.058594 C269.492188,231.46746 270.100905,233.466138 271.318359,235.054688 C272.535813,236.643237 274.218739,237.4375 276.367188,237.4375 C277.656256,237.4375 278.84114,237.225914 279.921875,236.802734 C281.00261,236.379555 281.901038,235.809899 282.617188,235.09375 L283.613281,236.695312 C282.87109,237.476566 281.897792,238.124346 280.693359,238.638672 C279.488926,239.152997 278.046883,239.410156 276.367188,239.410156 L276.367188,239.410156 Z M276.152344,219.46875 C274.35546,219.46875 272.87761,220.113275 271.71875,221.402344 C270.55989,222.691413 269.882813,224.325511 269.6875,226.304688 L269.746094,226.421875 L281.855469,226.421875 L281.855469,225.933594 C281.855469,224.058584 281.363937,222.512376 280.380859,221.294922 C279.397782,220.077468 277.98829,219.46875 276.152344,219.46875 L276.152344,219.46875 Z" id="Make" fill="#000000" sketch:type="MSShapeGroup"></path>
            <path d="M199.953125,283 L194.13916,283 L194.13916,248.164062 L199.953125,248.164062 L199.953125,283 Z M212.418457,257.112305 L212.753418,260.844727 C213.5988,259.520827 214.663486,258.488041 215.94751,257.746338 C217.231533,257.004635 218.679028,256.633789 220.290039,256.633789 C222.985691,256.633789 225.087151,257.463208 226.594482,259.12207 C228.101814,260.780933 228.855469,263.372866 228.855469,266.897949 L228.855469,283 L223.041504,283 L223.041504,266.945801 C223.041504,264.936025 222.65072,263.508468 221.869141,262.663086 C221.087561,261.817704 219.907234,261.39502 218.328125,261.39502 C217.083978,261.39502 216.007329,261.630287 215.098145,262.10083 C214.18896,262.571373 213.463219,263.22135 212.920898,264.050781 L212.920898,283 L207.106934,283 L207.106934,257.112305 L212.418457,257.112305 Z M233.832031,270.415039 C233.832031,266.283834 234.717276,262.954196 236.487793,260.426025 C238.25831,257.897855 240.746566,256.633789 243.952637,256.633789 C245.35629,256.633789 246.612381,256.916908 247.720947,257.483154 C248.829514,258.049401 249.790523,258.858881 250.604004,259.911621 L250.604004,245.675781 L256.417969,245.675781 L256.417969,283 L251.70459,283 L251.010742,279.722168 C250.181311,280.950364 249.176438,281.887448 247.996094,282.533447 C246.815749,283.179447 245.451993,283.502441 243.904785,283.502441 C240.730616,283.502441 238.25831,282.34604 236.487793,280.033203 C234.717276,277.720366 233.832031,274.681822 233.832031,270.91748 L233.832031,270.415039 Z M239.645996,270.91748 C239.645996,273.310071 240.104569,275.216139 241.021729,276.635742 C241.938888,278.055346 243.394359,278.765137 245.388184,278.765137 C246.61638,278.765137 247.657141,278.501956 248.510498,277.975586 C249.363855,277.449216 250.061683,276.699549 250.604004,275.726562 L250.604004,264.433594 C250.061683,263.476558 249.359868,262.730878 248.498535,262.196533 C247.637203,261.662188 246.61638,261.39502 245.436035,261.39502 C243.458161,261.39502 241.998703,262.228426 241.057617,263.895264 C240.116532,265.562101 239.645996,267.735338 239.645996,270.415039 L239.645996,270.91748 Z M271.251953,272.616211 L271.826172,275.200195 L271.969727,275.200195 L277.640137,257.112305 L284.004395,257.112305 L273.285645,286.923828 C272.599769,288.726246 271.634772,290.265456 270.390625,291.541504 C269.146478,292.817552 267.383963,293.455566 265.103027,293.455566 C264.624509,293.455566 264.11011,293.407715 263.559814,293.312012 C263.009519,293.216308 262.479169,293.104656 261.96875,292.977051 L262.614746,288.479004 C262.822104,288.494955 263.117186,288.51888 263.5,288.550781 C263.882814,288.582682 264.169921,288.598633 264.361328,288.598633 C265.414068,288.598633 266.255449,288.23975 266.885498,287.521973 C267.515547,286.804196 268.029946,285.974777 268.428711,285.033691 L269.385742,282.688965 L259.98291,257.112305 L266.323242,257.112305 L271.251953,272.616211 Z" id="Indy" fill="#000000" sketch:type="MSShapeGroup"></path>
        </g>
    </g>
</svg>